# xmcd CD database file
#
# Track frame offsets:
#	150
#	17282
#	38155
#	52035
#	70805
#	87097
#	102087
#
# Disc length: 1612 seconds
#
# Revision: 2
# Processed by: cddbd v1.5PL3 Copyright (c) Steve Scherf et al.
# Submitted via: CDex 1.51
#
DISCID=4b064a07
DTITLE=UFO - Ain't Misbehavin'
DYEAR=1988
DGENRE=Hard Rock
TTITLE0=Between A Rock and A Hard Place
TTITLE1=Another Saturday Night
TTITLE2=At War With The World
TTITLE3=Hunger In The Night
TTITLE4=Easy Money
TTITLE5=Rock Boyz, Rock
TTITLE6=Lonely Cities (Of The Heart)
EXTD=YEAR: 1988
EXTT0=
EXTT1=
EXTT2=
EXTT3=
EXTT4=
EXTT5=
EXTT6=
PLAYORDER=
